<svg width="64px" height="64px" viewBox="0 0 24 24"
  xmlns="http://www.w3.org/2000/svg">

  <g>

    <path d="M21,7H3A1,1,0,0,0,2,8V20a2,2,0,0,0,2,2H20a2,2,0,0,0,2-2V8A1,1,0,0,0,21,7Z" fill="#0F0F0F"/>

    <path d="M22,6V9H2V6A2,2,0,0,1,4,4H20A2,2,0,0,1,22,6ZM11.71,17.71l4-4a1,1,0,0,0-1.42-1.42L11,15.59l-1.29-1.3a1,1,0,0,0-1.42,1.42l2,2a1,1,0,0,0,1.42,0Z" fill="#2ca9bc"/>

    <path d="M16,7a1,1,0,0,1-1-1V3a1,1,0,0,1,2,0V6A1,1,0,0,1,16,7ZM9,6V3A1,1,0,0,0,7,3V6A1,1,0,0,0,9,6Z" fill="#0F0F0F"/>

  </g>

</svg>